<svg width="604" height="294" viewBox="0 0 604 294" fill="none" xmlns="http://www.w3.org/2000/svg">
<path d="M471.2 89.1L429.4 11.2C425 3.00003 414.9 3.19481e-05 406.9 4.50003L330.4 47.2C326.5 49.5 323.6 53.1 322.3 57.5L301.8 128.8C299.3 137.3 304.2 146.3 312.6 148.8L433 183.1C441.4 185.6 450.2 180.7 452.7 172.2L472.7 102.3C473.9 98.1 473.2 93.1 471.2 89.1Z" fill="#231F20"/>
<path d="M378.4 105C378.4 105 365.3 79.4004 356.8 79.4004C350.2 79.4004 349.7 86.4004 349.7 103.1C349.7 119.8 350.6 126.4 356.8 126.4C365.2 126.3 378.4 105 378.4 105ZM395.3 83.6004C402 73.9004 408.1 64.3004 419.5 64.3004C432.1 64.3004 438.9 74.8004 439 83.7004V140.5H424.9L424.8 86.7004C424.8 79.3004 418.9 79.3004 418.8 79.3004C414 79.3004 405.2 91.3004 395.4 104.6V140.4H381.1V123.8C381.1 123.8 371.7 140.4 357.5 140.4C341.4 140.4 336 129.3 336 102.9C336 77.7004 339.5 64.2004 356.8 64.2004C369.9 64.2004 381.1 83.3004 381.1 83.3004V71.2004L395.5 51.9004C395.3 52.0004 395.2 83.7004 395.3 83.6004Z" fill="white"/>
<path d="M121.7 88.3C136.3 95.7 144 110.4 144 126.8C144 157.6 124 181.5 87 181.5H0.5V2H79.8C113.2 2 136.6 23.8 136.6 57.2C136.6 68.2 130.7 81.1 121.7 88.3ZM47.5 42.8V72.8H76.5C85.5 72.8 90.1 65.9 90.4 58.7C90.7 50.7 86 42.8 76.5 42.8H47.5ZM47.5 110.8V140.6H83.7C92.7 140.6 96.8 133.9 97.6 126.7C97.9 121.3 95.5 115.7 91.2 112.6C88.9 111.6 86.6 110.8 83.5 110.8H47.5Z" fill="#231F20"/>
<path d="M205.6 127.8C205.6 139.4 213.6 145.5 225.6 145.5C238.2 145.5 245.4 136 245.6 123.9C244.8 96.4002 220.7 97.4002 199.9 99.5002V93.6002L226.6 40.7002H171.4V2.7002H286V9.40019L253.1 70.0002C281.3 77.4002 289.8 100.3 289.8 123.7C289.8 154.3 268 185.8 226.4 185.8C191.5 185.8 165.3 163.5 164.5 127.8H205.6Z" fill="#231F20"/>
<path d="M520 58.5H481.2C480.4 21.5 502.8 0 538.7 0C587.2 0 610.9 48.3 581.3 91.7C581.3 92.2 580.8 93.7 546.4 141H603.4V182.6H479.1V172.6L541.5 82C553.8 63.5 557.9 42.2 537.1 41.4C528.7 41 520 46.4 520 58.5Z" fill="#231F20"/>
<path d="M118.977 230H94V278.785H118.977V230Z" fill="#44C6EE"/>
<path d="M199.838 230H174.864V289.787H199.838V230Z" fill="#1AA99E"/>
<path d="M276.541 230H251.571V259.893H276.541V230Z" fill="#1AA99E"/>
<path d="M354.139 230H329.162V278.785H354.139V230Z" fill="#F15B44"/>
<path d="M431.733 230H406.761V293.357H431.733V230Z" fill="#F15B44"/>
<path d="M509.331 230H484.359V265.694H509.331V230Z" fill="#FCB246"/>
</svg>
