<svg width="603" height="294" viewBox="0 0 603 294" fill="none" xmlns="http://www.w3.org/2000/svg">
<path d="M470.7 89.1L428.9 11.2C424.5 3.00003 414.4 3.19481e-05 406.4 4.50003L329.9 47.2C326 49.5 323.1 53.1 321.8 57.5L301.3 128.8C298.8 137.3 303.7 146.3 312.1 148.8L432.5 183.1C440.9 185.6 449.7 180.7 452.2 172.2L472.2 102.3C473.4 98.1 472.7 93.1 470.7 89.1Z" fill="white"/>
<path d="M377.9 105C377.9 105 364.8 79.4004 356.3 79.4004C349.7 79.4004 349.2 86.4004 349.2 103.1C349.2 119.8 350.1 126.4 356.3 126.4C364.7 126.3 377.9 105 377.9 105ZM394.8 83.6004C401.5 73.9004 407.6 64.3004 419 64.3004C431.6 64.3004 438.4 74.8004 438.5 83.7004V140.5H424.4L424.3 86.7004C424.3 79.3004 418.4 79.3004 418.3 79.3004C413.5 79.3004 404.7 91.3004 394.9 104.6V140.4H380.6V123.8C380.6 123.8 371.2 140.4 357 140.4C340.9 140.4 335.5 129.3 335.5 102.9C335.5 77.7004 339 64.2004 356.3 64.2004C369.4 64.2004 380.6 83.3004 380.6 83.3004V71.2004L395 51.9004C394.8 52.0004 394.7 83.7004 394.8 83.6004Z" fill="#231F20"/>
<path d="M121.2 88.3C135.8 95.7 143.5 110.4 143.5 126.8C143.5 157.6 123.5 181.5 86.5 181.5H0V2H79.3C112.7 2 136.1 23.8 136.1 57.2C136.1 68.2 130.2 81.1 121.2 88.3ZM47 42.8V72.8H76C85 72.8 89.6 65.9 89.9 58.7C90.2 50.7 85.5 42.8 76 42.8H47ZM47 110.8V140.6H83.2C92.2 140.6 96.3 133.9 97.1 126.7C97.4 121.3 95 115.7 90.7 112.6C88.4 111.6 86.1 110.8 83 110.8H47Z" fill="white"/>
<path d="M205.1 127.8C205.1 139.4 213.1 145.5 225.1 145.5C237.7 145.5 244.9 136 245.1 123.9C244.3 96.4002 220.2 97.4002 199.4 99.5002V93.6002L226.1 40.7002H170.9V2.7002H285.5V9.40019L252.6 70.0002C280.8 77.4002 289.3 100.3 289.3 123.7C289.3 154.3 267.5 185.8 225.9 185.8C191 185.8 164.8 163.5 164 127.8H205.1Z" fill="white"/>
<path d="M519.5 58.5H480.7C479.9 21.5 502.3 0 538.2 0C586.7 0 610.4 48.3 580.8 91.7C580.8 92.2 580.3 93.7 545.9 141H602.9V182.6H478.6V172.6L541 82C553.3 63.5 557.4 42.2 536.6 41.4C528.2 41 519.5 46.4 519.5 58.5Z" fill="white"/>
<path d="M118.477 230H93.5V278.785H118.477V230Z" fill="#44C6EE"/>
<path d="M199.338 230H174.364V289.787H199.338V230Z" fill="#1AA99E"/>
<path d="M276.041 230H251.071V259.893H276.041V230Z" fill="#1AA99E"/>
<path d="M353.639 230H328.662V278.785H353.639V230Z" fill="#F15B44"/>
<path d="M431.233 230H406.261V293.357H431.233V230Z" fill="#F15B44"/>
<path d="M508.831 230H483.859V265.694H508.831V230Z" fill="#FCB246"/>
</svg>
